<svg width="2351" height="1330" viewBox="0 0 2351 1330" fill="none" xmlns="http://www.w3.org/2000/svg">
<mask id="mask0_147_2662" style="mask-type:luminance" maskUnits="userSpaceOnUse" x="0" y="0" width="639" height="1039">
<path d="M0 0H638.84V1038.44H0V0Z" fill="white"/>
</mask>
<g mask="url(#mask0_147_2662)">
<path d="M359.108 23.7415C359.108 23.7415 542.866 85.2727 580.705 310.536C580.705 310.536 523.149 112.175 359.108 23.7415ZM319.456 0C315.832 0 312.208 0.140478 308.583 0.351205C308.438 0.983371 308.293 1.68578 308.148 2.3882C304.379 17.771 300.392 36.5956 296.84 58.1596C293.361 79.7939 290.316 104.238 288.431 130.929C286.547 157.551 285.894 186.42 286.909 216.834C287.924 247.178 290.823 279.068 295.753 311.73C296.043 313.837 296.333 315.874 296.623 317.911C296.985 319.948 297.347 321.985 297.71 324.022C298.435 328.166 299.16 332.24 299.885 336.385L300.899 342.566C301.262 344.673 301.769 346.71 302.132 348.817C303.002 352.961 303.871 357.106 304.741 361.25C306.264 369.609 308.438 377.897 310.468 386.256C311.555 390.4 312.353 394.614 313.512 398.759C314.6 402.973 315.759 407.117 316.919 411.332C318.007 415.546 319.166 419.69 320.326 423.905C321.559 428.049 322.863 432.264 324.168 436.408C326.778 444.767 329.242 453.195 332.214 461.484L336.419 473.987C337.868 478.131 339.246 482.346 340.913 486.42C344.175 494.848 347.364 503.348 350.626 511.777C353.743 520.346 356.933 528.915 360.122 537.485C361.717 541.629 363.167 546.405 364.617 550.901C366.139 555.467 367.589 560.032 369.111 564.598C372.228 573.799 374.475 582.861 376.94 591.922C378.1 596.487 379.404 600.983 380.419 605.478C381.434 610.044 382.449 614.61 383.464 619.175C384.478 623.741 385.493 628.236 386.508 632.802C387.306 637.368 388.103 641.933 388.973 646.429C389.698 650.994 390.495 655.56 391.22 660.055C392.017 664.551 392.452 669.117 393.105 673.682C394.192 682.743 395.497 691.664 396.149 700.655C396.874 709.646 397.744 718.496 397.889 727.346C399.556 762.748 397.961 797.026 394.047 829.056C392.96 837.133 392.017 845 390.568 852.727C389.263 860.453 388.103 868.11 386.363 875.485C384.768 882.93 383.246 890.236 381.361 897.33C380.492 900.912 379.622 904.424 378.752 907.866C377.882 911.378 376.795 914.75 375.852 918.121C368.024 945.164 358.963 969.327 349.684 990.118C341.203 1009.01 332.649 1025.17 324.893 1038.51C498.793 1033.81 638.84 803.137 638.84 519.292C638.84 232.498 495.821 0 319.456 0ZM303.436 611.519C303.436 611.519 360.702 761.624 321.993 911.659C321.993 911.659 335.041 765.277 303.436 611.519ZM341.638 911.238C342.073 907.936 342.653 904.635 343.088 901.263C343.45 897.892 343.885 894.52 344.247 891.078C345.19 884.195 345.77 877.171 346.35 870.076C347.074 862.982 347.437 855.677 347.872 848.302C348.452 840.997 348.524 833.481 348.742 825.965C349.467 795.691 348.162 763.802 344.537 731.139C343.885 722.992 342.435 714.844 341.348 706.555C340.406 698.267 338.811 689.978 337.361 681.69C336.564 677.546 335.984 673.331 335.041 669.187C334.099 665.043 333.157 660.898 332.287 656.684C331.345 652.54 330.475 648.325 329.605 644.111C328.517 639.967 327.503 635.822 326.415 631.608C325.4 627.393 324.313 623.249 323.226 619.035C322.138 614.82 320.834 610.676 319.601 606.532C316.992 598.243 314.817 589.674 311.99 581.666L307.931 569.444C306.553 565.3 305.321 561.367 303.581 557.012C300.392 548.513 297.13 539.943 293.868 531.374C290.679 522.734 287.489 514.095 284.227 505.455C282.56 501.03 281.11 496.534 279.588 492.109C278.138 487.614 276.688 483.188 275.166 478.693C273.789 474.198 272.121 469.843 270.962 465.277C269.657 460.782 268.425 456.286 267.192 451.791C265.887 447.295 264.655 442.8 263.423 438.304C262.336 433.739 261.248 429.243 260.161 424.748C259.074 420.252 257.986 415.757 256.971 411.262C255.884 406.766 255.014 402.2 254.144 397.705C252.477 388.644 250.592 379.723 249.36 370.732C246.388 352.821 244.213 334.98 242.764 317.419C239.719 282.369 239.647 248.232 241.749 216.062C243.851 183.961 248.2 153.828 253.999 126.434C259.726 98.9697 266.902 74.3151 274.369 52.8915C281.4 32.8026 288.649 15.5935 295.318 1.47506C130.189 21.4938 0 245.703 0 519.292C0 801.662 138.598 1031.35 311.193 1038.44C311.338 1038.16 311.41 1037.95 311.483 1037.67C316.629 1022.64 322.283 1004.24 327.575 983.024C332.867 961.741 337.868 937.648 341.638 911.238Z" fill="#8979B3"/>
</g>
<mask id="mask1_147_2662" style="mask-type:luminance" maskUnits="userSpaceOnUse" x="828" y="0" width="639" height="1039">
<path d="M828.128 0H1466.97V1038.44H828.128V0Z" fill="white"/>
</mask>
<g mask="url(#mask1_147_2662)">
<path d="M1187.24 23.7415C1187.24 23.7415 1370.99 85.2727 1408.83 310.536C1408.83 310.536 1351.28 112.175 1187.24 23.7415ZM1147.58 0C1143.96 0 1140.34 0.140478 1136.71 0.351205C1136.57 0.983371 1136.42 1.68578 1136.28 2.3882C1132.51 17.771 1128.52 36.5956 1124.97 58.1596C1121.49 79.7939 1118.44 104.238 1116.56 130.929C1114.67 157.551 1114.02 186.42 1115.04 216.834C1116.05 247.178 1118.95 279.068 1123.88 311.73C1124.17 313.837 1124.46 315.874 1124.75 317.911C1125.11 319.948 1125.48 321.985 1125.84 324.022C1126.56 328.166 1127.29 332.24 1128.01 336.385L1129.03 342.566C1129.39 344.673 1129.9 346.71 1130.26 348.817C1131.13 352.961 1132 357.106 1132.87 361.25C1134.39 369.609 1136.57 377.897 1138.6 386.256C1139.68 390.4 1140.48 394.614 1141.64 398.759C1142.73 402.973 1143.89 407.117 1145.05 411.332C1146.13 415.546 1147.29 419.69 1148.45 423.905C1149.69 428.049 1150.99 432.264 1152.3 436.408C1154.91 444.767 1157.37 453.195 1160.34 461.484L1164.55 473.987C1166 478.131 1167.37 482.346 1169.04 486.42C1172.3 494.848 1175.49 503.348 1178.75 511.777C1181.87 520.346 1185.06 528.915 1188.25 537.485C1189.85 541.629 1191.29 546.405 1192.74 550.901C1194.27 555.467 1195.72 560.032 1197.24 564.598C1200.36 573.799 1202.6 582.861 1205.07 591.922C1206.23 596.487 1207.53 600.983 1208.55 605.478C1209.56 610.044 1210.58 614.61 1211.59 619.175C1212.61 623.741 1213.62 628.236 1214.64 632.802C1215.43 637.368 1216.23 641.933 1217.1 646.429C1217.83 650.994 1218.62 655.56 1219.35 660.055C1220.15 664.551 1220.58 669.117 1221.23 673.682C1222.32 682.743 1223.62 691.664 1224.28 700.655C1225 709.646 1225.87 718.496 1226.02 727.346C1227.68 762.748 1226.09 797.026 1222.17 829.056C1221.09 837.133 1220.15 845 1218.7 852.727C1217.39 860.453 1216.23 868.11 1214.49 875.485C1212.9 882.93 1211.37 890.236 1209.49 897.33C1208.62 900.912 1207.75 904.424 1206.88 907.866C1206.01 911.378 1204.92 914.75 1203.98 918.121C1196.15 945.164 1187.09 969.327 1177.81 990.118C1169.33 1009.01 1160.78 1025.17 1153.02 1038.51C1326.92 1033.81 1466.97 803.137 1466.97 519.292C1466.97 232.498 1323.95 0 1147.58 0ZM1131.56 611.519C1131.56 611.519 1188.83 761.624 1150.12 911.659C1150.12 911.659 1163.17 765.277 1131.56 611.519ZM1169.77 911.238C1170.2 907.936 1170.78 904.635 1171.22 901.263C1171.58 897.892 1172.01 894.52 1172.38 891.078C1173.32 884.195 1173.9 877.171 1174.48 870.076C1175.2 862.982 1175.56 855.677 1176 848.302C1176.58 840.997 1176.65 833.481 1176.87 825.965C1177.59 795.691 1176.29 763.802 1172.67 731.139C1172.01 722.992 1170.56 714.844 1169.48 706.555C1168.53 698.267 1166.94 689.978 1165.49 681.69C1164.69 677.546 1164.11 673.331 1163.17 669.187C1162.23 665.043 1161.28 660.898 1160.41 656.684C1159.47 652.54 1158.6 648.325 1157.73 644.111C1156.65 639.967 1155.63 635.822 1154.54 631.608C1153.53 627.393 1152.44 623.249 1151.35 619.035C1150.27 614.82 1148.96 610.676 1147.73 606.532C1145.12 598.243 1142.95 589.674 1140.12 581.666L1136.06 569.444C1134.68 565.3 1133.45 561.367 1131.71 557.012C1128.52 548.513 1125.26 539.943 1122 531.374C1118.81 522.734 1115.62 514.095 1112.35 505.455C1110.69 501.03 1109.24 496.534 1107.72 492.109C1106.27 487.614 1104.82 483.188 1103.29 478.693C1101.92 474.198 1100.25 469.843 1099.09 465.277C1097.78 460.782 1096.55 456.286 1095.32 451.791C1094.02 447.295 1092.78 442.8 1091.55 438.304C1090.46 433.739 1089.38 429.243 1088.29 424.748C1087.2 420.252 1086.11 415.757 1085.1 411.262C1084.01 406.766 1083.14 402.2 1082.27 397.705C1080.61 388.644 1078.72 379.723 1077.49 370.732C1074.52 352.821 1072.34 334.98 1070.89 317.419C1067.85 282.369 1067.77 248.232 1069.88 216.062C1071.98 183.961 1076.33 153.828 1082.13 126.434C1087.85 98.9697 1095.03 74.3151 1102.5 52.8915C1109.53 32.8026 1116.78 15.5935 1123.45 1.47506C958.317 21.4938 828.128 245.703 828.128 519.292C828.128 801.662 966.726 1031.35 1139.32 1038.44C1139.47 1038.16 1139.54 1037.95 1139.61 1037.67C1144.76 1022.64 1150.41 1004.24 1155.7 983.024C1160.99 961.741 1166 937.648 1169.77 911.238Z" fill="#DFA4C7"/>
</g>
<mask id="mask2_147_2662" style="mask-type:luminance" maskUnits="userSpaceOnUse" x="1656" y="0" width="640" height="1039">
<path d="M1656.25 0H2295.09V1038.44H1656.25V0Z" fill="white"/>
</mask>
<g mask="url(#mask2_147_2662)">
<path d="M2015.36 23.7415C2015.36 23.7415 2199.12 85.2727 2236.96 310.536C2236.96 310.536 2179.4 112.175 2015.36 23.7415ZM1975.71 0C1972.08 0 1968.46 0.140478 1964.84 0.351205C1964.69 0.983371 1964.55 1.68578 1964.4 2.3882C1960.63 17.771 1956.64 36.5956 1953.09 58.1596C1949.61 79.7939 1946.57 104.238 1944.68 130.929C1942.8 157.551 1942.15 186.42 1943.16 216.834C1944.18 247.178 1947.08 279.068 1952.01 311.73C1952.3 313.837 1952.59 315.874 1952.88 317.911C1953.24 319.948 1953.6 321.985 1953.96 324.022C1954.69 328.166 1955.41 332.24 1956.14 336.385L1957.15 342.566C1957.51 344.673 1958.02 346.71 1958.38 348.817C1959.25 352.961 1960.12 357.106 1960.99 361.25C1962.52 369.609 1964.69 377.897 1966.72 386.256C1967.81 390.4 1968.61 394.614 1969.77 398.759C1970.85 402.973 1972.01 407.117 1973.17 411.332C1974.26 415.546 1975.42 419.69 1976.58 423.905C1977.81 428.049 1979.12 432.264 1980.42 436.408C1983.03 444.767 1985.5 453.195 1988.47 461.484L1992.67 473.987C1994.12 478.131 1995.5 482.346 1997.17 486.42C2000.43 494.848 2003.62 503.348 2006.88 511.777C2010 520.346 2013.19 528.915 2016.38 537.485C2017.97 541.629 2019.42 546.405 2020.87 550.901C2022.39 555.467 2023.84 560.032 2025.36 564.598C2028.48 573.799 2030.73 582.861 2033.19 591.922C2034.35 596.487 2035.66 600.983 2036.67 605.478C2037.69 610.044 2038.7 614.61 2039.72 619.175C2040.73 623.741 2041.75 628.236 2042.76 632.802C2043.56 637.368 2044.36 641.933 2045.23 646.429C2045.95 650.994 2046.75 655.56 2047.47 660.055C2048.27 664.551 2048.71 669.117 2049.36 673.682C2050.44 682.743 2051.75 691.664 2052.4 700.655C2053.13 709.646 2054 718.496 2054.14 727.346C2055.81 762.748 2054.21 797.026 2050.3 829.056C2049.21 837.133 2048.27 845 2046.82 852.727C2045.52 860.453 2044.36 868.11 2042.62 875.485C2041.02 882.93 2039.5 890.236 2037.61 897.33C2036.74 900.912 2035.87 904.424 2035 907.866C2034.13 911.378 2033.05 914.75 2032.11 918.121C2024.28 945.164 2015.22 969.327 2005.94 990.118C1997.46 1009.01 1988.9 1025.17 1981.15 1038.51C2155.05 1033.81 2295.09 803.137 2295.09 519.292C2295.09 232.498 2152.07 0 1975.71 0ZM1959.69 611.519C1959.69 611.519 2016.96 761.624 1978.25 911.659C1978.25 911.659 1991.29 765.277 1959.69 611.519ZM1997.89 911.238C1998.33 907.936 1998.91 904.635 1999.34 901.263C1999.7 897.892 2000.14 894.52 2000.5 891.078C2001.44 884.195 2002.02 877.171 2002.6 870.076C2003.33 862.982 2003.69 855.677 2004.12 848.302C2004.7 840.997 2004.78 833.481 2004.99 825.965C2005.72 795.691 2004.41 763.802 2000.79 731.139C2000.14 722.992 1998.69 714.844 1997.6 706.555C1996.66 698.267 1995.06 689.978 1993.61 681.69C1992.82 677.546 1992.24 673.331 1991.29 669.187C1990.35 665.043 1989.41 660.898 1988.54 656.684C1987.6 652.54 1986.73 648.325 1985.86 644.111C1984.77 639.967 1983.76 635.822 1982.67 631.608C1981.65 627.393 1980.57 623.249 1979.48 619.035C1978.39 614.82 1977.09 610.676 1975.85 606.532C1973.24 598.243 1971.07 589.674 1968.24 581.666L1964.18 569.444C1962.81 565.3 1961.57 561.367 1959.83 557.012C1956.64 548.513 1953.38 539.943 1950.12 531.374C1946.93 522.734 1943.74 514.095 1940.48 505.455C1938.81 501.03 1937.36 496.534 1935.84 492.109C1934.39 487.614 1932.94 483.188 1931.42 478.693C1930.04 474.198 1928.37 469.843 1927.21 465.277C1925.91 460.782 1924.68 456.286 1923.45 451.791C1922.14 447.295 1920.91 442.8 1919.68 438.304C1918.59 433.739 1917.5 429.243 1916.41 424.748C1915.33 420.252 1914.24 415.757 1913.22 411.262C1912.14 406.766 1911.27 402.2 1910.4 397.705C1908.73 388.644 1906.85 379.723 1905.61 370.732C1902.64 352.821 1900.47 334.98 1899.02 317.419C1895.97 282.369 1895.9 248.232 1898 216.062C1900.1 183.961 1904.45 153.828 1910.25 126.434C1915.98 98.9697 1923.16 74.3151 1930.62 52.8915C1937.65 32.8026 1944.9 15.5935 1951.57 1.47506C1786.44 21.4938 1656.25 245.703 1656.25 519.292C1656.25 801.662 1794.85 1031.35 1967.45 1038.44C1967.59 1038.16 1967.66 1037.95 1967.74 1037.67C1972.88 1022.64 1978.54 1004.24 1983.83 983.024C1989.12 961.741 1994.12 937.648 1997.89 911.238Z" fill="#A8D2DF"/>
</g>
<path d="M146.562 1292H138.875L142.938 1266.25H122.25L117.875 1292H110.062L113.875 1266.25H97L97.875 1260.12H114.938L119.812 1230.69H102.5L103.25 1224.31H120.562L124.5 1200.12H132.312L128.375 1224.31H149.5L153.062 1200.12H161.25L157.312 1224.31H173.562L172.5 1230.69H156.125L151.562 1260.12H168.062L167.125 1266.25H150.625L146.562 1292ZM123 1260.12H143.75L148.062 1230.69H127.5L123 1260.12ZM191.25 1247.69C191.042 1247.65 190.75 1247.58 190.375 1247.5C190 1247.38 189.271 1247.1 188.188 1246.69C187.146 1246.23 186.125 1245.71 185.125 1245.12C184.167 1244.54 183.083 1243.71 181.875 1242.62C180.708 1241.5 179.688 1240.27 178.812 1238.94C177.979 1237.56 177.271 1235.88 176.688 1233.88C176.104 1231.83 175.812 1229.62 175.812 1227.25C175.812 1224.12 176.229 1221.29 177.062 1218.75C177.896 1216.17 178.958 1214.06 180.25 1212.44C181.542 1210.81 183.062 1209.4 184.812 1208.19C186.604 1206.94 188.292 1206.02 189.875 1205.44C191.458 1204.81 193.125 1204.33 194.875 1204C196.625 1203.62 197.979 1203.4 198.938 1203.31C199.896 1203.23 200.75 1203.19 201.5 1203.19C202.708 1203.19 203.938 1203.25 205.188 1203.38C206.438 1203.5 207.917 1203.77 209.625 1204.19C211.333 1204.56 212.938 1205.06 214.438 1205.69C215.938 1206.31 217.458 1207.21 219 1208.38C220.542 1209.54 221.854 1210.9 222.938 1212.44C224.021 1213.98 224.896 1215.9 225.562 1218.19C226.271 1220.48 226.625 1223.02 226.625 1225.81C226.625 1228.1 226.354 1230.29 225.812 1232.38C225.312 1234.42 224.625 1236.17 223.75 1237.62C222.917 1239.04 221.979 1240.35 220.938 1241.56C219.938 1242.73 218.917 1243.69 217.875 1244.44C216.875 1245.19 215.938 1245.81 215.062 1246.31C214.229 1246.81 213.292 1247.27 212.25 1247.69V1248.5C212.5 1248.54 212.833 1248.6 213.25 1248.69C213.667 1248.77 214.458 1249.04 215.625 1249.5C216.833 1249.92 217.979 1250.42 219.062 1251C220.146 1251.58 221.333 1252.42 222.625 1253.5C223.958 1254.58 225.104 1255.81 226.062 1257.19C227.021 1258.52 227.812 1260.21 228.438 1262.25C229.104 1264.29 229.438 1266.52 229.438 1268.94C229.438 1272.4 228.854 1275.56 227.688 1278.44C226.521 1281.27 224.979 1283.62 223.062 1285.5C221.188 1287.33 219 1288.9 216.5 1290.19C214 1291.48 211.458 1292.4 208.875 1292.94C206.333 1293.52 203.792 1293.81 201.25 1293.81C199.167 1293.81 196.979 1293.56 194.688 1293.06C192.396 1292.56 190.021 1291.73 187.562 1290.56C185.104 1289.35 182.917 1287.88 181 1286.12C179.083 1284.38 177.5 1282.12 176.25 1279.38C175 1276.58 174.375 1273.5 174.375 1270.12C174.375 1267.67 174.688 1265.38 175.312 1263.25C175.938 1261.08 176.729 1259.29 177.688 1257.88C178.688 1256.46 179.792 1255.19 181 1254.06C182.208 1252.9 183.417 1252 184.625 1251.38C185.833 1250.71 186.917 1250.17 187.875 1249.75C188.875 1249.29 190 1248.92 191.25 1248.62V1247.69ZM201.375 1246.06C203.667 1246.06 205.625 1245.42 207.25 1244.12C208.875 1242.83 210.083 1241.12 210.875 1239C211.708 1236.83 212.292 1234.69 212.625 1232.56C213 1230.4 213.188 1228.15 213.188 1225.81C213.188 1219.98 212.188 1215.44 210.188 1212.19C208.188 1208.9 205.208 1207.25 201.25 1207.25C197.542 1207.25 194.604 1208.96 192.438 1212.38C190.312 1215.75 189.25 1220.75 189.25 1227.38C189.25 1230.54 189.542 1233.31 190.125 1235.69C190.75 1238.06 191.479 1239.9 192.312 1241.19C193.188 1242.44 194.208 1243.46 195.375 1244.25C196.542 1245.04 197.583 1245.54 198.5 1245.75C199.458 1245.96 200.417 1246.06 201.375 1246.06ZM201.375 1250.12C199.875 1250.12 198.375 1250.48 196.875 1251.19C195.417 1251.9 193.979 1252.98 192.562 1254.44C191.146 1255.85 190 1257.94 189.125 1260.69C188.25 1263.4 187.812 1266.54 187.812 1270.12C187.812 1273.83 188.208 1277.04 189 1279.75C189.833 1282.42 190.938 1284.44 192.312 1285.81C193.729 1287.19 195.167 1288.19 196.625 1288.81C198.125 1289.4 199.708 1289.69 201.375 1289.69C203.5 1289.69 205.375 1289.4 207 1288.81C208.667 1288.19 210.208 1287.15 211.625 1285.69C213.042 1284.23 214.125 1282.12 214.875 1279.38C215.625 1276.58 216 1273.19 216 1269.19C216 1265.77 215.583 1262.81 214.75 1260.31C213.958 1257.81 213.021 1255.94 211.938 1254.69C210.896 1253.44 209.604 1252.44 208.062 1251.69C206.562 1250.94 205.333 1250.5 204.375 1250.38C203.417 1250.21 202.417 1250.12 201.375 1250.12ZM235.5 1321.31L234 1318.88C250.875 1310.58 264.042 1300.31 273.5 1288.06C269.292 1288.06 265.417 1287.77 261.875 1287.19C258.375 1286.6 255.083 1285.62 252 1284.25C248.917 1282.88 246.312 1281.15 244.188 1279.06C242.062 1276.94 240.375 1274.31 239.125 1271.19C237.917 1268.02 237.312 1264.42 237.312 1260.38C237.312 1255.71 238.146 1251.46 239.812 1247.62C241.521 1243.75 243.75 1240.6 246.5 1238.19C249.292 1235.77 252.375 1233.92 255.75 1232.62C259.167 1231.33 262.667 1230.69 266.25 1230.69C268 1230.69 269.75 1230.81 271.5 1231.06C273.25 1231.31 275.125 1231.75 277.125 1232.38C279.125 1233 281 1233.81 282.75 1234.81C284.542 1235.77 286.25 1237.06 287.875 1238.69C289.542 1240.27 290.958 1242.08 292.125 1244.12C293.333 1246.12 294.292 1248.56 295 1251.44C295.708 1254.31 296.062 1257.46 296.062 1260.88C296.062 1277.29 287.875 1291.56 271.5 1303.69C262.167 1310.6 251.354 1316.1 239.062 1320.19C236.688 1320.94 235.5 1321.31 235.5 1321.31ZM251.375 1260.38C251.417 1264.38 251.833 1267.75 252.625 1270.5C253.417 1273.25 254.75 1275.62 256.625 1277.62C258.5 1279.58 261.021 1281.06 264.188 1282.06C267.354 1283.02 271.271 1283.52 275.938 1283.56C277.854 1281.65 279.458 1278.52 280.75 1274.19C282.083 1269.85 282.75 1264.6 282.75 1258.44C282.75 1250.98 281.292 1245.19 278.375 1241.06C275.5 1236.9 271.5 1234.81 266.375 1234.81C265.083 1234.81 263.812 1235 262.562 1235.38C261.354 1235.75 260.042 1236.52 258.625 1237.69C257.208 1238.81 255.979 1240.27 254.938 1242.06C253.938 1243.85 253.083 1246.33 252.375 1249.5C251.708 1252.67 251.375 1256.29 251.375 1260.38ZM353.125 1244.75H328.625C327.5 1244.75 326.438 1244.88 325.438 1245.12C324.438 1245.33 323.521 1245.6 322.688 1245.94C321.896 1246.27 320.979 1246.88 319.938 1247.75C318.938 1248.62 318.146 1249.48 317.562 1250.31C317.021 1251.15 316.667 1251.71 316.5 1252C316.333 1252.25 316.021 1252.83 315.562 1253.75C315.104 1254.62 314.854 1255.08 314.812 1255.12C313.312 1255.12 312.125 1254.62 311.25 1253.62C312.25 1250.96 313.104 1247.46 313.812 1243.12C314.562 1238.75 314.979 1235.12 315.062 1232.25C315.729 1231.21 316.542 1230.69 317.5 1230.69L320.562 1232.62H364.062C364.771 1232.62 365.375 1232.98 365.875 1233.69C366.375 1234.4 366.667 1235.1 366.75 1235.81L324.688 1299.69C322.521 1302.77 321.104 1305.21 320.438 1307C322.229 1307 323.812 1307.69 325.188 1309.06C326.562 1310.44 327.25 1312.21 327.25 1314.38C327.25 1316.38 326.458 1318.08 324.875 1319.5C323.333 1320.96 321.167 1321.69 318.375 1321.69C315.708 1321.69 313.604 1320.94 312.062 1319.44C310.562 1317.98 309.812 1315.96 309.812 1313.38C309.812 1311.92 310.312 1310.15 311.312 1308.06C312.354 1305.98 313.375 1304.25 314.375 1302.88L353.125 1244.75ZM368.75 1321.31L367.25 1318.88C384.125 1310.58 397.292 1300.31 406.75 1288.06C402.542 1288.06 398.667 1287.77 395.125 1287.19C391.625 1286.6 388.333 1285.62 385.25 1284.25C382.167 1282.88 379.562 1281.15 377.438 1279.06C375.312 1276.94 373.625 1274.31 372.375 1271.19C371.167 1268.02 370.562 1264.42 370.562 1260.38C370.562 1255.71 371.396 1251.46 373.062 1247.62C374.771 1243.75 377 1240.6 379.75 1238.19C382.542 1235.77 385.625 1233.92 389 1232.62C392.417 1231.33 395.917 1230.69 399.5 1230.69C401.25 1230.69 403 1230.81 404.75 1231.06C406.5 1231.31 408.375 1231.75 410.375 1232.38C412.375 1233 414.25 1233.81 416 1234.81C417.792 1235.77 419.5 1237.06 421.125 1238.69C422.792 1240.27 424.208 1242.08 425.375 1244.12C426.583 1246.12 427.542 1248.56 428.25 1251.44C428.958 1254.31 429.312 1257.46 429.312 1260.88C429.312 1277.29 421.125 1291.56 404.75 1303.69C395.417 1310.6 384.604 1316.1 372.312 1320.19C369.938 1320.94 368.75 1321.31 368.75 1321.31ZM384.625 1260.38C384.667 1264.38 385.083 1267.75 385.875 1270.5C386.667 1273.25 388 1275.62 389.875 1277.62C391.75 1279.58 394.271 1281.06 397.438 1282.06C400.604 1283.02 404.521 1283.52 409.188 1283.56C411.104 1281.65 412.708 1278.52 414 1274.19C415.333 1269.85 416 1264.6 416 1258.44C416 1250.98 414.542 1245.19 411.625 1241.06C408.75 1236.9 404.75 1234.81 399.625 1234.81C398.333 1234.81 397.062 1235 395.812 1235.38C394.604 1235.75 393.292 1236.52 391.875 1237.69C390.458 1238.81 389.229 1240.27 388.188 1242.06C387.188 1243.85 386.333 1246.33 385.625 1249.5C384.958 1252.67 384.625 1256.29 384.625 1260.38ZM440 1200.25C447 1200.5 454.292 1200.62 461.875 1200.62C465.458 1200.62 468.875 1200.54 472.125 1200.38C475.375 1200.21 477.042 1200.12 477.125 1200.12C479.375 1200.12 481.438 1200.19 483.312 1200.31C485.229 1200.4 487.375 1200.6 489.75 1200.94C492.167 1201.27 494.312 1201.73 496.188 1202.31C498.062 1202.9 499.938 1203.71 501.812 1204.75C503.729 1205.79 505.312 1207.02 506.562 1208.44C507.854 1209.85 508.896 1211.6 509.688 1213.69C510.479 1215.77 510.875 1218.1 510.875 1220.69C510.875 1228.31 506.312 1234.04 497.188 1237.88V1238.38C504.021 1239.62 509.729 1242.46 514.312 1246.88C518.938 1251.29 521.25 1256.94 521.25 1263.81C521.25 1267.48 520.583 1270.79 519.25 1273.75C517.958 1276.67 516.292 1279.08 514.25 1281C512.208 1282.92 509.646 1284.58 506.562 1286C503.479 1287.42 500.479 1288.5 497.562 1289.25C494.646 1290 491.292 1290.6 487.5 1291.06C483.75 1291.48 480.542 1291.75 477.875 1291.88C475.208 1291.96 472.229 1292 468.938 1292C457.646 1292 447.958 1292.12 439.875 1292.38C439.708 1291.88 439.625 1291.46 439.625 1291.12C439.625 1290.83 439.708 1290.27 439.875 1289.44C441.125 1289.31 442.125 1289.21 442.875 1289.12C443.625 1289.04 444.646 1288.9 445.938 1288.69C447.271 1288.48 448.333 1288.25 449.125 1288C449.958 1287.71 450.812 1287.35 451.688 1286.94C452.562 1286.52 453.208 1286.02 453.625 1285.44C454.083 1284.85 454.312 1284.19 454.312 1283.44C454.812 1270.4 455.062 1257.25 455.062 1244C455.062 1230.5 454.854 1218.85 454.438 1209.06C454.396 1207.98 453.917 1207.06 453 1206.31C452.125 1205.56 450.792 1204.98 449 1204.56C447.208 1204.15 445.771 1203.88 444.688 1203.75C443.604 1203.58 442.042 1203.4 440 1203.19C439.833 1202.44 439.75 1201.92 439.75 1201.62C439.75 1201.38 439.833 1200.92 440 1200.25ZM468.25 1244V1248.62L468.938 1287.75C471.729 1287.75 474.208 1287.71 476.375 1287.62C478.542 1287.5 480.917 1287.25 483.5 1286.88C486.083 1286.46 488.333 1285.92 490.25 1285.25C492.167 1284.58 494.083 1283.67 496 1282.5C497.917 1281.29 499.479 1279.88 500.688 1278.25C501.896 1276.62 502.875 1274.62 503.625 1272.25C504.375 1269.83 504.75 1267.12 504.75 1264.12C504.75 1261.21 504.271 1258.6 503.312 1256.31C502.354 1253.98 501 1252.04 499.25 1250.5C497.542 1248.92 495.438 1247.6 492.938 1246.56C490.479 1245.52 487.792 1244.77 484.875 1244.31C482 1243.85 478.854 1243.62 475.438 1243.62C473.062 1243.62 470.667 1243.75 468.25 1244ZM469.062 1204.56L468.25 1240.19C485.25 1240.19 493.75 1233.69 493.75 1220.69C493.75 1215.02 491.979 1210.85 488.438 1208.19C484.938 1205.52 480.271 1204.19 474.438 1204.19C473.146 1204.19 471.354 1204.31 469.062 1204.56ZM544.25 1272.69L554.5 1267.69C557.083 1266.44 559.229 1265.06 560.938 1263.56C562.688 1262.02 564 1260.42 564.875 1258.75C565.792 1257.08 566.417 1255.56 566.75 1254.19C567.125 1252.77 567.312 1250.92 567.312 1248.62C567.312 1245.88 566.271 1243.46 564.188 1241.38C562.104 1239.29 559.438 1238.25 556.188 1238.25C551.812 1238.25 548.542 1239.23 546.375 1241.19C544.208 1243.15 543.125 1245.71 543.125 1248.88C543.125 1253.08 543.938 1256.42 545.562 1258.88C545.021 1259.83 544.208 1260.38 543.125 1260.5C538.5 1257.54 536.188 1253.27 536.188 1247.69C536.188 1242.69 538.104 1238.6 541.938 1235.44C545.771 1232.27 551.333 1230.69 558.625 1230.69C565.458 1230.69 570.938 1232.12 575.062 1235C579.188 1237.83 581.25 1242.29 581.25 1248.38C581.25 1252.46 579.688 1256.23 576.562 1259.69C573.438 1263.15 569.625 1265.56 565.125 1266.94V1267.56C567.583 1267.77 569.875 1268.31 572 1269.19C574.167 1270.02 576.229 1271.27 578.188 1272.94C580.146 1274.56 581.688 1276.81 582.812 1279.69C583.979 1282.56 584.562 1285.9 584.562 1289.69C584.562 1294.27 583.542 1298.6 581.5 1302.69C579.458 1306.81 576.854 1310.23 573.688 1312.94C570.521 1315.65 567.042 1317.77 563.25 1319.31C559.5 1320.9 555.854 1321.69 552.312 1321.69C549.188 1321.69 546.333 1321.31 543.75 1320.56C541.208 1319.81 539.146 1318.85 537.562 1317.69C535.979 1316.56 534.646 1315.27 533.562 1313.81C532.479 1312.35 531.729 1310.98 531.312 1309.69C530.896 1308.4 530.688 1307.19 530.688 1306.06C530.688 1303.52 531.458 1301.44 533 1299.81C534.542 1298.19 536.458 1297.38 538.75 1297.38C541.458 1297.38 543.604 1298.06 545.188 1299.44C546.771 1300.85 547.562 1302.98 547.562 1305.81C547.562 1307.73 546.896 1309.35 545.562 1310.69C544.271 1312.06 542.979 1312.92 541.688 1313.25C541.688 1313.71 542.042 1314.27 542.75 1314.94C543.458 1315.6 544.646 1316.23 546.312 1316.81C548.021 1317.44 549.979 1317.75 552.188 1317.75C557.646 1317.75 562.062 1315.33 565.438 1310.5C568.812 1305.67 570.5 1299.29 570.5 1291.38C570.5 1288.12 570.062 1285.33 569.188 1283C568.354 1280.62 567.167 1278.83 565.625 1277.62C564.125 1276.42 562.542 1275.54 560.875 1275C559.25 1274.46 557.458 1274.19 555.5 1274.19C552.667 1274.19 549.438 1274.92 545.812 1276.38L544.25 1272.69Z" fill="black"/>
<path d="M1784.56 1292H1776.88L1780.94 1266.25H1760.25L1755.88 1292H1748.06L1751.88 1266.25H1735L1735.88 1260.12H1752.94L1757.81 1230.69H1740.5L1741.25 1224.31H1758.56L1762.5 1200.12H1770.31L1766.38 1224.31H1787.5L1791.06 1200.12H1799.25L1795.31 1224.31H1811.56L1810.5 1230.69H1794.12L1789.56 1260.12H1806.06L1805.12 1266.25H1788.62L1784.56 1292ZM1761 1260.12H1781.75L1786.06 1230.69H1765.5L1761 1260.12ZM1856.06 1199.19C1856.69 1198.73 1857.35 1198.44 1858.06 1198.31L1892.25 1283.69C1892.67 1284.73 1893.35 1285.62 1894.31 1286.38C1895.27 1287.08 1896.46 1287.65 1897.88 1288.06C1899.33 1288.44 1900.58 1288.73 1901.62 1288.94C1902.71 1289.1 1904.02 1289.27 1905.56 1289.44C1905.73 1290.1 1905.81 1290.67 1905.81 1291.12C1905.81 1291.62 1905.73 1292.08 1905.56 1292.5C1896.56 1292.17 1889.83 1292 1885.38 1292C1880.54 1292 1873.54 1292.17 1864.38 1292.5C1864.21 1292 1864.12 1291.5 1864.12 1291C1864.12 1290.46 1864.21 1289.94 1864.38 1289.44C1872.79 1288.52 1877 1286.94 1877 1284.69C1877 1283.98 1876.92 1283.25 1876.75 1282.5L1867.69 1259.25C1864.94 1259.17 1861.23 1259.12 1856.56 1259.12C1854.35 1259.12 1848.62 1259.21 1839.38 1259.38L1829.81 1283.69V1284.44C1829.81 1284.85 1829.88 1285.25 1830 1285.62C1830.17 1286 1830.42 1286.33 1830.75 1286.62C1831.12 1286.92 1831.48 1287.17 1831.81 1287.38C1832.15 1287.58 1832.6 1287.79 1833.19 1288C1833.81 1288.17 1834.33 1288.31 1834.75 1288.44C1835.21 1288.52 1835.81 1288.62 1836.56 1288.75C1837.35 1288.88 1837.96 1288.98 1838.38 1289.06C1838.79 1289.1 1839.4 1289.17 1840.19 1289.25C1841.02 1289.33 1841.6 1289.4 1841.94 1289.44C1842.1 1290.1 1842.19 1290.67 1842.19 1291.12C1842.19 1291.38 1842.1 1291.83 1841.94 1292.5C1832.6 1292.17 1827.35 1292 1826.19 1292C1823.94 1292 1818.15 1292.17 1808.81 1292.5C1808.65 1292 1808.56 1291.5 1808.56 1291C1808.56 1290.46 1808.65 1289.94 1808.81 1289.44C1817.48 1288.44 1822.42 1286.31 1823.62 1283.06L1850.5 1215.31L1849.12 1211.62C1851.5 1210.04 1853.15 1208.33 1854.06 1206.5C1855.02 1204.67 1855.69 1202.23 1856.06 1199.19ZM1856.56 1254.25C1860.4 1254.25 1863.42 1254.21 1865.62 1254.12L1853.75 1223.38H1853.5L1841.56 1254C1845.48 1254.17 1850.48 1254.25 1856.56 1254.25ZM1931 1247.69C1930.79 1247.65 1930.5 1247.58 1930.12 1247.5C1929.75 1247.38 1929.02 1247.1 1927.94 1246.69C1926.9 1246.23 1925.88 1245.71 1924.88 1245.12C1923.92 1244.54 1922.83 1243.71 1921.62 1242.62C1920.46 1241.5 1919.44 1240.27 1918.56 1238.94C1917.73 1237.56 1917.02 1235.88 1916.44 1233.88C1915.85 1231.83 1915.56 1229.62 1915.56 1227.25C1915.56 1224.12 1915.98 1221.29 1916.81 1218.75C1917.65 1216.17 1918.71 1214.06 1920 1212.44C1921.29 1210.81 1922.81 1209.4 1924.56 1208.19C1926.35 1206.94 1928.04 1206.02 1929.62 1205.44C1931.21 1204.81 1932.88 1204.33 1934.62 1204C1936.38 1203.62 1937.73 1203.4 1938.69 1203.31C1939.65 1203.23 1940.5 1203.19 1941.25 1203.19C1942.46 1203.19 1943.69 1203.25 1944.94 1203.38C1946.19 1203.5 1947.67 1203.77 1949.38 1204.19C1951.08 1204.56 1952.69 1205.06 1954.19 1205.69C1955.69 1206.31 1957.21 1207.21 1958.75 1208.38C1960.29 1209.54 1961.6 1210.9 1962.69 1212.44C1963.77 1213.98 1964.65 1215.9 1965.31 1218.19C1966.02 1220.48 1966.38 1223.02 1966.38 1225.81C1966.38 1228.1 1966.1 1230.29 1965.56 1232.38C1965.06 1234.42 1964.38 1236.17 1963.5 1237.62C1962.67 1239.04 1961.73 1240.35 1960.69 1241.56C1959.69 1242.73 1958.67 1243.69 1957.62 1244.44C1956.62 1245.19 1955.69 1245.81 1954.81 1246.31C1953.98 1246.81 1953.04 1247.27 1952 1247.69V1248.5C1952.25 1248.54 1952.58 1248.6 1953 1248.69C1953.42 1248.77 1954.21 1249.04 1955.38 1249.5C1956.58 1249.92 1957.73 1250.42 1958.81 1251C1959.9 1251.58 1961.08 1252.42 1962.38 1253.5C1963.71 1254.58 1964.85 1255.81 1965.81 1257.19C1966.77 1258.52 1967.56 1260.21 1968.19 1262.25C1968.85 1264.29 1969.19 1266.52 1969.19 1268.94C1969.19 1272.4 1968.6 1275.56 1967.44 1278.44C1966.27 1281.27 1964.73 1283.62 1962.81 1285.5C1960.94 1287.33 1958.75 1288.9 1956.25 1290.19C1953.75 1291.48 1951.21 1292.4 1948.62 1292.94C1946.08 1293.52 1943.54 1293.81 1941 1293.81C1938.92 1293.81 1936.73 1293.56 1934.44 1293.06C1932.15 1292.56 1929.77 1291.73 1927.31 1290.56C1924.85 1289.35 1922.67 1287.88 1920.75 1286.12C1918.83 1284.38 1917.25 1282.12 1916 1279.38C1914.75 1276.58 1914.12 1273.5 1914.12 1270.12C1914.12 1267.67 1914.44 1265.38 1915.06 1263.25C1915.69 1261.08 1916.48 1259.29 1917.44 1257.88C1918.44 1256.46 1919.54 1255.19 1920.75 1254.06C1921.96 1252.9 1923.17 1252 1924.38 1251.38C1925.58 1250.71 1926.67 1250.17 1927.62 1249.75C1928.62 1249.29 1929.75 1248.92 1931 1248.62V1247.69ZM1941.12 1246.06C1943.42 1246.06 1945.38 1245.42 1947 1244.12C1948.62 1242.83 1949.83 1241.12 1950.62 1239C1951.46 1236.83 1952.04 1234.69 1952.38 1232.56C1952.75 1230.4 1952.94 1228.15 1952.94 1225.81C1952.94 1219.98 1951.94 1215.44 1949.94 1212.19C1947.94 1208.9 1944.96 1207.25 1941 1207.25C1937.29 1207.25 1934.35 1208.96 1932.19 1212.38C1930.06 1215.75 1929 1220.75 1929 1227.38C1929 1230.54 1929.29 1233.31 1929.88 1235.69C1930.5 1238.06 1931.23 1239.9 1932.06 1241.19C1932.94 1242.44 1933.96 1243.46 1935.12 1244.25C1936.29 1245.04 1937.33 1245.54 1938.25 1245.75C1939.21 1245.96 1940.17 1246.06 1941.12 1246.06ZM1941.12 1250.12C1939.62 1250.12 1938.12 1250.48 1936.62 1251.19C1935.17 1251.9 1933.73 1252.98 1932.31 1254.44C1930.9 1255.85 1929.75 1257.94 1928.88 1260.69C1928 1263.4 1927.56 1266.54 1927.56 1270.12C1927.56 1273.83 1927.96 1277.04 1928.75 1279.75C1929.58 1282.42 1930.69 1284.44 1932.06 1285.81C1933.48 1287.19 1934.92 1288.19 1936.38 1288.81C1937.88 1289.4 1939.46 1289.69 1941.12 1289.69C1943.25 1289.69 1945.12 1289.4 1946.75 1288.81C1948.42 1288.19 1949.96 1287.15 1951.38 1285.69C1952.79 1284.23 1953.88 1282.12 1954.62 1279.38C1955.38 1276.58 1955.75 1273.19 1955.75 1269.19C1955.75 1265.77 1955.33 1262.81 1954.5 1260.31C1953.71 1257.81 1952.77 1255.94 1951.69 1254.69C1950.65 1253.44 1949.35 1252.44 1947.81 1251.69C1946.31 1250.94 1945.08 1250.5 1944.12 1250.38C1943.17 1250.21 1942.17 1250.12 1941.12 1250.12ZM1979.88 1200.12C1989.21 1200.46 1996.67 1200.62 2002.25 1200.62C2012.67 1200.29 2019.06 1200.12 2021.44 1200.12C2025.31 1200.12 2028.96 1200.29 2032.38 1200.62C2035.79 1200.96 2039.31 1201.58 2042.94 1202.5C2046.6 1203.38 2049.92 1204.54 2052.88 1206C2055.83 1207.42 2058.67 1209.31 2061.38 1211.69C2064.08 1214.06 2066.35 1216.81 2068.19 1219.94C2070.02 1223.06 2071.48 1226.83 2072.56 1231.25C2073.65 1235.62 2074.19 1240.48 2074.19 1245.81C2073.85 1250.94 2072.96 1255.65 2071.5 1259.94C2070.08 1264.23 2068.25 1267.94 2066 1271.06C2063.79 1274.19 2061.17 1276.98 2058.12 1279.44C2055.08 1281.9 2051.9 1283.9 2048.56 1285.44C2045.27 1286.98 2041.69 1288.25 2037.81 1289.25C2033.98 1290.25 2030.23 1290.96 2026.56 1291.38C2022.94 1291.79 2019.19 1292 2015.31 1292C1999.69 1292 1987.83 1292.12 1979.75 1292.38C1979.58 1291.88 1979.5 1291.46 1979.5 1291.12C1979.5 1290.83 1979.58 1290.27 1979.75 1289.44C1981 1289.31 1982 1289.21 1982.75 1289.12C1983.5 1289.04 1984.52 1288.9 1985.81 1288.69C1987.15 1288.48 1988.21 1288.25 1989 1288C1989.83 1287.71 1990.69 1287.35 1991.56 1286.94C1992.44 1286.52 1993.08 1286.02 1993.5 1285.44C1993.96 1284.85 1994.19 1284.19 1994.19 1283.44C1994.69 1270.4 1994.94 1257.25 1994.94 1244C1994.94 1230.5 1994.73 1218.85 1994.31 1209.06C1994.27 1207.98 1993.79 1207.06 1992.88 1206.31C1991.96 1205.52 1990.62 1204.92 1988.88 1204.5C1987.17 1204.08 1985.71 1203.79 1984.5 1203.62C1983.33 1203.42 1981.79 1203.23 1979.88 1203.06C1979.71 1202.31 1979.62 1201.79 1979.62 1201.5C1979.62 1201.25 1979.71 1200.79 1979.88 1200.12ZM2008.94 1209.06C2008.4 1223.23 2008.12 1236.42 2008.12 1248.62C2008.12 1255.38 2008.35 1268.29 2008.81 1287.38C2010.6 1287.46 2013.17 1287.5 2016.5 1287.5C2023.25 1287.5 2029.25 1286.48 2034.5 1284.44C2039.75 1282.35 2044.06 1279.46 2047.44 1275.75C2050.81 1272.04 2053.35 1267.67 2055.06 1262.62C2056.81 1257.54 2057.69 1251.94 2057.69 1245.81C2057.69 1242.65 2057.44 1239.54 2056.94 1236.5C2056.44 1233.46 2055.65 1230.35 2054.56 1227.19C2053.48 1224.02 2051.98 1221.1 2050.06 1218.44C2048.15 1215.77 2045.85 1213.4 2043.19 1211.31C2040.56 1209.19 2037.31 1207.54 2033.44 1206.38C2029.6 1205.17 2025.35 1204.56 2020.69 1204.56C2016.4 1204.56 2012.48 1204.83 2008.94 1205.38V1209.06ZM2089.81 1286.88L2114.75 1269.62C2118.67 1266.92 2121.46 1264.19 2123.12 1261.44C2124.79 1258.69 2125.62 1255.19 2125.62 1250.94C2125.62 1248.56 2125.27 1246.5 2124.56 1244.75C2123.85 1242.96 2122.94 1241.62 2121.81 1240.75C2120.69 1239.88 2119.62 1239.25 2118.62 1238.88C2117.67 1238.46 2116.54 1238.25 2115.25 1238.25C2111 1238.25 2107.58 1239.25 2105 1241.25C2102.46 1243.21 2101.19 1246 2101.19 1249.62C2101.19 1251.83 2101.54 1253.85 2102.25 1255.69C2102.96 1257.52 2103.67 1258.79 2104.38 1259.5L2105.44 1260.62C2105.06 1262.04 2104.17 1262.81 2102.75 1262.94C2102.5 1262.85 2102.17 1262.73 2101.75 1262.56C2101.33 1262.35 2100.58 1261.85 2099.5 1261.06C2098.42 1260.27 2097.46 1259.38 2096.62 1258.38C2095.79 1257.33 2095.04 1255.92 2094.38 1254.12C2093.71 1252.33 2093.38 1250.38 2093.38 1248.25C2093.38 1244.42 2094.48 1241.15 2096.69 1238.44C2098.9 1235.73 2101.73 1233.77 2105.19 1232.56C2108.65 1231.31 2112.52 1230.69 2116.81 1230.69C2123.81 1230.69 2129.33 1232.31 2133.38 1235.56C2137.42 1238.81 2139.44 1243.21 2139.44 1248.75C2139.44 1251.38 2139 1253.83 2138.12 1256.12C2137.25 1258.38 2136.02 1260.35 2134.44 1262.06C2132.85 1263.77 2131.38 1265.17 2130 1266.25C2128.62 1267.33 2127 1268.46 2125.12 1269.62L2109.75 1279.06V1279.69H2124.62C2127.54 1279.69 2130.21 1278.75 2132.62 1276.88C2135.04 1274.96 2136.94 1272.83 2138.31 1270.5C2139.6 1270.5 2140.62 1270.79 2141.38 1271.38L2135.75 1292H2091.88C2090.96 1291.38 2090.27 1289.67 2089.81 1286.88ZM2154 1200.12C2163.33 1200.46 2170.79 1200.62 2176.38 1200.62C2186.79 1200.29 2193.19 1200.12 2195.56 1200.12C2199.44 1200.12 2203.08 1200.29 2206.5 1200.62C2209.92 1200.96 2213.44 1201.58 2217.06 1202.5C2220.73 1203.38 2224.04 1204.54 2227 1206C2229.96 1207.42 2232.79 1209.31 2235.5 1211.69C2238.21 1214.06 2240.48 1216.81 2242.31 1219.94C2244.15 1223.06 2245.6 1226.83 2246.69 1231.25C2247.77 1235.62 2248.31 1240.48 2248.31 1245.81C2247.98 1250.94 2247.08 1255.65 2245.62 1259.94C2244.21 1264.23 2242.38 1267.94 2240.12 1271.06C2237.92 1274.19 2235.29 1276.98 2232.25 1279.44C2229.21 1281.9 2226.02 1283.9 2222.69 1285.44C2219.4 1286.98 2215.81 1288.25 2211.94 1289.25C2208.1 1290.25 2204.35 1290.96 2200.69 1291.38C2197.06 1291.79 2193.31 1292 2189.44 1292C2173.81 1292 2161.96 1292.12 2153.88 1292.38C2153.71 1291.88 2153.62 1291.46 2153.62 1291.12C2153.62 1290.83 2153.71 1290.27 2153.88 1289.44C2155.12 1289.31 2156.12 1289.21 2156.88 1289.12C2157.62 1289.04 2158.65 1288.9 2159.94 1288.69C2161.27 1288.48 2162.33 1288.25 2163.12 1288C2163.96 1287.71 2164.81 1287.35 2165.69 1286.94C2166.56 1286.52 2167.21 1286.02 2167.62 1285.44C2168.08 1284.85 2168.31 1284.19 2168.31 1283.44C2168.81 1270.4 2169.06 1257.25 2169.06 1244C2169.06 1230.5 2168.85 1218.85 2168.44 1209.06C2168.4 1207.98 2167.92 1207.06 2167 1206.31C2166.08 1205.52 2164.75 1204.92 2163 1204.5C2161.29 1204.08 2159.83 1203.79 2158.62 1203.62C2157.46 1203.42 2155.92 1203.23 2154 1203.06C2153.83 1202.31 2153.75 1201.79 2153.75 1201.5C2153.75 1201.25 2153.83 1200.79 2154 1200.12ZM2183.06 1209.06C2182.52 1223.23 2182.25 1236.42 2182.25 1248.62C2182.25 1255.38 2182.48 1268.29 2182.94 1287.38C2184.73 1287.46 2187.29 1287.5 2190.62 1287.5C2197.38 1287.5 2203.38 1286.48 2208.62 1284.44C2213.88 1282.35 2218.19 1279.46 2221.56 1275.75C2224.94 1272.04 2227.48 1267.67 2229.19 1262.62C2230.94 1257.54 2231.81 1251.94 2231.81 1245.81C2231.81 1242.65 2231.56 1239.54 2231.06 1236.5C2230.56 1233.46 2229.77 1230.35 2228.69 1227.19C2227.6 1224.02 2226.1 1221.1 2224.19 1218.44C2222.27 1215.77 2219.98 1213.4 2217.31 1211.31C2214.69 1209.19 2211.44 1207.54 2207.56 1206.38C2203.73 1205.17 2199.48 1204.56 2194.81 1204.56C2190.52 1204.56 2186.6 1204.83 2183.06 1205.38V1209.06ZM2261.5 1200.25C2268.5 1200.5 2275.79 1200.62 2283.38 1200.62H2290.56C2293.6 1200.58 2298.85 1200.56 2306.31 1200.56C2313.81 1200.52 2320.21 1200.48 2325.5 1200.44C2330.83 1200.4 2336.12 1200.29 2341.38 1200.12C2341.71 1203 2342.42 1206 2343.5 1209.12C2344.58 1212.21 2345.62 1214.75 2346.62 1216.75C2347.62 1218.71 2348.94 1221.08 2350.56 1223.88C2350.23 1224.58 2349.5 1225.15 2348.38 1225.56C2346.88 1222.73 2345.06 1220.21 2342.94 1218C2340.81 1215.79 2338.12 1213.71 2334.88 1211.75C2331.67 1209.79 2327.65 1208.19 2322.81 1206.94C2318.02 1205.69 2312.56 1204.85 2306.44 1204.44H2290.56C2290.02 1222.44 2289.75 1236.04 2289.75 1245.25H2307.56C2308.6 1245.25 2309.58 1245.17 2310.5 1245C2311.42 1244.79 2312.27 1244.46 2313.06 1244C2313.9 1243.54 2314.6 1243.1 2315.19 1242.69C2315.81 1242.23 2316.46 1241.56 2317.12 1240.69C2317.83 1239.77 2318.4 1239.02 2318.81 1238.44C2319.23 1237.85 2319.75 1236.94 2320.38 1235.69C2321 1234.4 2321.48 1233.42 2321.81 1232.75C2322.15 1232.08 2322.65 1230.98 2323.31 1229.44C2324.02 1227.9 2324.54 1226.77 2324.88 1226.06C2326.33 1226.69 2327.12 1227.21 2327.25 1227.62C2324.79 1234.04 2323.56 1240.56 2323.56 1247.19C2323.56 1253.77 2324.79 1260.31 2327.25 1266.81C2326.96 1267.4 2326.17 1267.94 2324.88 1268.44C2322.33 1262.31 2320.4 1258.21 2319.06 1256.12C2315.98 1251.5 2312.15 1249.17 2307.56 1249.12H2289.75C2289.75 1258.08 2289.98 1269.52 2290.44 1283.44C2290.48 1284.52 2290.96 1285.46 2291.88 1286.25C2292.79 1287 2294.1 1287.58 2295.81 1288C2297.56 1288.42 2299.02 1288.73 2300.19 1288.94C2301.4 1289.1 2302.96 1289.27 2304.88 1289.44C2305.04 1290.27 2305.12 1290.83 2305.12 1291.12C2305.12 1291.46 2305.04 1291.88 2304.88 1292.38C2297.79 1292.12 2290.54 1292 2283.12 1292C2275.62 1292 2268.38 1292.12 2261.38 1292.38C2261.21 1291.88 2261.12 1291.46 2261.12 1291.12C2261.12 1290.83 2261.21 1290.27 2261.38 1289.44C2262.62 1289.31 2263.62 1289.21 2264.38 1289.12C2265.12 1289.04 2266.15 1288.9 2267.44 1288.69C2268.77 1288.48 2269.83 1288.25 2270.62 1288C2271.46 1287.71 2272.31 1287.35 2273.19 1286.94C2274.06 1286.52 2274.71 1286.02 2275.12 1285.44C2275.58 1284.85 2275.81 1284.19 2275.81 1283.44C2276.31 1270.4 2276.56 1257.25 2276.56 1244C2276.56 1230.5 2276.35 1218.85 2275.94 1209.06C2275.9 1207.98 2275.42 1207.06 2274.5 1206.31C2273.62 1205.56 2272.29 1204.98 2270.5 1204.56C2268.71 1204.15 2267.27 1203.88 2266.19 1203.75C2265.1 1203.58 2263.54 1203.4 2261.5 1203.19C2261.33 1202.44 2261.25 1201.92 2261.25 1201.62C2261.25 1201.38 2261.33 1200.92 2261.5 1200.25Z" fill="black"/>
<path d="M912.562 1292H904.875L908.938 1266.25H888.25L883.875 1292H876.062L879.875 1266.25H863L863.875 1260.12H880.938L885.812 1230.69H868.5L869.25 1224.31H886.562L890.5 1200.12H898.312L894.375 1224.31H915.5L919.062 1200.12H927.25L923.312 1224.31H939.562L938.5 1230.69H922.125L917.562 1260.12H934.062L933.125 1266.25H916.625L912.562 1292ZM889 1260.12H909.75L914.062 1230.69H893.5L889 1260.12ZM939.5 1200.12C948.833 1200.46 956.292 1200.62 961.875 1200.62C972.292 1200.29 978.688 1200.12 981.062 1200.12C984.938 1200.12 988.583 1200.29 992 1200.62C995.417 1200.96 998.938 1201.58 1002.56 1202.5C1006.23 1203.38 1009.54 1204.54 1012.5 1206C1015.46 1207.42 1018.29 1209.31 1021 1211.69C1023.71 1214.06 1025.98 1216.81 1027.81 1219.94C1029.65 1223.06 1031.1 1226.83 1032.19 1231.25C1033.27 1235.62 1033.81 1240.48 1033.81 1245.81C1033.48 1250.94 1032.58 1255.65 1031.12 1259.94C1029.71 1264.23 1027.88 1267.94 1025.62 1271.06C1023.42 1274.19 1020.79 1276.98 1017.75 1279.44C1014.71 1281.9 1011.52 1283.9 1008.19 1285.44C1004.9 1286.98 1001.31 1288.25 997.438 1289.25C993.604 1290.25 989.854 1290.96 986.188 1291.38C982.562 1291.79 978.812 1292 974.938 1292C959.312 1292 947.458 1292.12 939.375 1292.38C939.208 1291.88 939.125 1291.46 939.125 1291.12C939.125 1290.83 939.208 1290.27 939.375 1289.44C940.625 1289.31 941.625 1289.21 942.375 1289.12C943.125 1289.04 944.146 1288.9 945.438 1288.69C946.771 1288.48 947.833 1288.25 948.625 1288C949.458 1287.71 950.312 1287.35 951.188 1286.94C952.062 1286.52 952.708 1286.02 953.125 1285.44C953.583 1284.85 953.812 1284.19 953.812 1283.44C954.312 1270.4 954.562 1257.25 954.562 1244C954.562 1230.5 954.354 1218.85 953.938 1209.06C953.896 1207.98 953.417 1207.06 952.5 1206.31C951.583 1205.52 950.25 1204.92 948.5 1204.5C946.792 1204.08 945.333 1203.79 944.125 1203.62C942.958 1203.42 941.417 1203.23 939.5 1203.06C939.333 1202.31 939.25 1201.79 939.25 1201.5C939.25 1201.25 939.333 1200.79 939.5 1200.12ZM968.562 1209.06C968.021 1223.23 967.75 1236.42 967.75 1248.62C967.75 1255.38 967.979 1268.29 968.438 1287.38C970.229 1287.46 972.792 1287.5 976.125 1287.5C982.875 1287.5 988.875 1286.48 994.125 1284.44C999.375 1282.35 1003.69 1279.46 1007.06 1275.75C1010.44 1272.04 1012.98 1267.67 1014.69 1262.62C1016.44 1257.54 1017.31 1251.94 1017.31 1245.81C1017.31 1242.65 1017.06 1239.54 1016.56 1236.5C1016.06 1233.46 1015.27 1230.35 1014.19 1227.19C1013.1 1224.02 1011.6 1221.1 1009.69 1218.44C1007.77 1215.77 1005.48 1213.4 1002.81 1211.31C1000.19 1209.19 996.938 1207.54 993.062 1206.38C989.229 1205.17 984.979 1204.56 980.312 1204.56C976.021 1204.56 972.104 1204.83 968.562 1205.38V1209.06ZM1047 1200.25C1054 1200.5 1061.29 1200.62 1068.88 1200.62H1076.06C1079.1 1200.58 1084.35 1200.56 1091.81 1200.56C1099.31 1200.52 1105.71 1200.48 1111 1200.44C1116.33 1200.4 1121.62 1200.29 1126.88 1200.12C1127.21 1203 1127.92 1206 1129 1209.12C1130.08 1212.21 1131.12 1214.75 1132.12 1216.75C1133.12 1218.71 1134.44 1221.08 1136.06 1223.88C1135.73 1224.58 1135 1225.15 1133.88 1225.56C1132.38 1222.73 1130.56 1220.21 1128.44 1218C1126.31 1215.79 1123.62 1213.71 1120.38 1211.75C1117.17 1209.79 1113.15 1208.19 1108.31 1206.94C1103.52 1205.69 1098.06 1204.85 1091.94 1204.44H1076.06C1075.52 1222.44 1075.25 1236.04 1075.25 1245.25H1093.06C1094.1 1245.25 1095.08 1245.17 1096 1245C1096.92 1244.79 1097.77 1244.46 1098.56 1244C1099.4 1243.54 1100.1 1243.1 1100.69 1242.69C1101.31 1242.23 1101.96 1241.56 1102.62 1240.69C1103.33 1239.77 1103.9 1239.02 1104.31 1238.44C1104.73 1237.85 1105.25 1236.94 1105.88 1235.69C1106.5 1234.4 1106.98 1233.42 1107.31 1232.75C1107.65 1232.08 1108.15 1230.98 1108.81 1229.44C1109.52 1227.9 1110.04 1226.77 1110.38 1226.06C1111.83 1226.69 1112.62 1227.21 1112.75 1227.62C1110.29 1234.04 1109.06 1240.56 1109.06 1247.19C1109.06 1253.77 1110.29 1260.31 1112.75 1266.81C1112.46 1267.4 1111.67 1267.94 1110.38 1268.44C1107.83 1262.31 1105.9 1258.21 1104.56 1256.12C1101.48 1251.5 1097.65 1249.17 1093.06 1249.12H1075.25C1075.25 1258.08 1075.48 1269.52 1075.94 1283.44C1075.98 1284.52 1076.46 1285.46 1077.38 1286.25C1078.29 1287 1079.6 1287.58 1081.31 1288C1083.06 1288.42 1084.52 1288.73 1085.69 1288.94C1086.9 1289.1 1088.46 1289.27 1090.38 1289.44C1090.54 1290.27 1090.62 1290.83 1090.62 1291.12C1090.62 1291.46 1090.54 1291.88 1090.38 1292.38C1083.29 1292.12 1076.04 1292 1068.62 1292C1061.12 1292 1053.88 1292.12 1046.88 1292.38C1046.71 1291.88 1046.62 1291.46 1046.62 1291.12C1046.62 1290.83 1046.71 1290.27 1046.88 1289.44C1048.12 1289.31 1049.12 1289.21 1049.88 1289.12C1050.62 1289.04 1051.65 1288.9 1052.94 1288.69C1054.27 1288.48 1055.33 1288.25 1056.12 1288C1056.96 1287.71 1057.81 1287.35 1058.69 1286.94C1059.56 1286.52 1060.21 1286.02 1060.62 1285.44C1061.08 1284.85 1061.31 1284.19 1061.31 1283.44C1061.81 1270.4 1062.06 1257.25 1062.06 1244C1062.06 1230.5 1061.85 1218.85 1061.44 1209.06C1061.4 1207.98 1060.92 1207.06 1060 1206.31C1059.12 1205.56 1057.79 1204.98 1056 1204.56C1054.21 1204.15 1052.77 1203.88 1051.69 1203.75C1050.6 1203.58 1049.04 1203.4 1047 1203.19C1046.83 1202.44 1046.75 1201.92 1046.75 1201.62C1046.75 1201.38 1046.83 1200.92 1047 1200.25ZM1185.56 1199.19C1186.19 1198.73 1186.85 1198.44 1187.56 1198.31L1221.75 1283.69C1222.17 1284.73 1222.85 1285.62 1223.81 1286.38C1224.77 1287.08 1225.96 1287.65 1227.38 1288.06C1228.83 1288.44 1230.08 1288.73 1231.12 1288.94C1232.21 1289.1 1233.52 1289.27 1235.06 1289.44C1235.23 1290.1 1235.31 1290.67 1235.31 1291.12C1235.31 1291.62 1235.23 1292.08 1235.06 1292.5C1226.06 1292.17 1219.33 1292 1214.88 1292C1210.04 1292 1203.04 1292.17 1193.88 1292.5C1193.71 1292 1193.62 1291.5 1193.62 1291C1193.62 1290.46 1193.71 1289.94 1193.88 1289.44C1202.29 1288.52 1206.5 1286.94 1206.5 1284.69C1206.5 1283.98 1206.42 1283.25 1206.25 1282.5L1197.19 1259.25C1194.44 1259.17 1190.73 1259.12 1186.06 1259.12C1183.85 1259.12 1178.12 1259.21 1168.88 1259.38L1159.31 1283.69V1284.44C1159.31 1284.85 1159.38 1285.25 1159.5 1285.62C1159.67 1286 1159.92 1286.33 1160.25 1286.62C1160.62 1286.92 1160.98 1287.17 1161.31 1287.38C1161.65 1287.58 1162.1 1287.79 1162.69 1288C1163.31 1288.17 1163.83 1288.31 1164.25 1288.44C1164.71 1288.52 1165.31 1288.62 1166.06 1288.75C1166.85 1288.88 1167.46 1288.98 1167.88 1289.06C1168.29 1289.1 1168.9 1289.17 1169.69 1289.25C1170.52 1289.33 1171.1 1289.4 1171.44 1289.44C1171.6 1290.1 1171.69 1290.67 1171.69 1291.12C1171.69 1291.38 1171.6 1291.83 1171.44 1292.5C1162.1 1292.17 1156.85 1292 1155.69 1292C1153.44 1292 1147.65 1292.17 1138.31 1292.5C1138.15 1292 1138.06 1291.5 1138.06 1291C1138.06 1290.46 1138.15 1289.94 1138.31 1289.44C1146.98 1288.44 1151.92 1286.31 1153.12 1283.06L1180 1215.31L1178.62 1211.62C1181 1210.04 1182.65 1208.33 1183.56 1206.5C1184.52 1204.67 1185.19 1202.23 1185.56 1199.19ZM1186.06 1254.25C1189.9 1254.25 1192.92 1254.21 1195.12 1254.12L1183.25 1223.38H1183L1171.06 1254C1174.98 1254.17 1179.98 1254.25 1186.06 1254.25ZM1288.19 1232.12V1280.38H1304.69C1303.48 1287.96 1302.85 1291.83 1302.81 1292H1288.19V1319.38H1275.38V1292H1240.06C1238.94 1291.46 1238.38 1290.23 1238.38 1288.31L1284.19 1230.69C1285.98 1230.69 1287.31 1231.17 1288.19 1232.12ZM1275.62 1250.62L1252.06 1280.38H1275.62V1250.62ZM1358.81 1198.06C1362.1 1198.06 1365.38 1198.29 1368.62 1198.75C1371.92 1199.17 1375.06 1199.69 1378.06 1200.31C1381.1 1200.9 1383.98 1201.48 1386.69 1202.06C1389.4 1202.65 1391.83 1203.06 1394 1203.31C1393.5 1204.81 1393.25 1207.46 1393.25 1211.25C1393.25 1218.62 1394.35 1225.02 1396.56 1230.44C1396.31 1231.19 1395.54 1231.65 1394.25 1231.81L1391.56 1226.06C1390.23 1223.19 1388.62 1220.35 1386.75 1217.56C1384.88 1214.73 1382.62 1212.21 1380 1210C1377.38 1207.75 1374.31 1205.94 1370.81 1204.56C1367.35 1203.19 1363.35 1202.5 1358.81 1202.5C1354.9 1202.5 1351.42 1203.15 1348.38 1204.44C1345.33 1205.73 1342.67 1207.48 1340.38 1209.69C1338.08 1211.85 1336.15 1214.4 1334.56 1217.31C1332.98 1220.19 1331.69 1223.25 1330.69 1226.5C1329.73 1229.75 1329.02 1233.08 1328.56 1236.5C1328.15 1239.92 1327.94 1243.23 1327.94 1246.44C1327.94 1251.77 1328.62 1256.88 1330 1261.75C1331.42 1266.62 1333.6 1270.94 1336.56 1274.69C1339.52 1278.4 1343.27 1281.35 1347.81 1283.56C1352.4 1285.77 1357.85 1286.88 1364.19 1286.88C1376.31 1286.88 1385.48 1283.08 1391.69 1275.5C1392.35 1275.5 1392.9 1275.69 1393.31 1276.06C1393.77 1276.44 1394 1276.9 1394 1277.44C1392 1280.4 1389.56 1282.96 1386.69 1285.12C1383.85 1287.29 1380.83 1289.08 1377.62 1290.5C1374.42 1291.88 1371.17 1292.9 1367.88 1293.56C1364.62 1294.23 1361.6 1294.56 1358.81 1294.56C1355.77 1294.56 1352.48 1294.23 1348.94 1293.56C1345.44 1292.94 1341.92 1291.88 1338.38 1290.38C1334.88 1288.88 1331.5 1286.92 1328.25 1284.5C1325.04 1282.04 1322.19 1279.04 1319.69 1275.5C1317.19 1271.92 1315.19 1267.73 1313.69 1262.94C1312.19 1258.15 1311.44 1252.65 1311.44 1246.44C1311.44 1240.19 1312.19 1234.67 1313.69 1229.88C1315.19 1225.04 1317.19 1220.83 1319.69 1217.25C1322.23 1213.67 1325.12 1210.67 1328.38 1208.25C1331.67 1205.79 1335.06 1203.81 1338.56 1202.31C1342.06 1200.77 1345.56 1199.69 1349.06 1199.06C1352.56 1198.4 1355.81 1198.06 1358.81 1198.06ZM1451.38 1244.75H1426.88C1425.75 1244.75 1424.69 1244.88 1423.69 1245.12C1422.69 1245.33 1421.77 1245.6 1420.94 1245.94C1420.15 1246.27 1419.23 1246.88 1418.19 1247.75C1417.19 1248.62 1416.4 1249.48 1415.81 1250.31C1415.27 1251.15 1414.92 1251.71 1414.75 1252C1414.58 1252.25 1414.27 1252.83 1413.81 1253.75C1413.35 1254.62 1413.1 1255.08 1413.06 1255.12C1411.56 1255.12 1410.38 1254.62 1409.5 1253.62C1410.5 1250.96 1411.35 1247.46 1412.06 1243.12C1412.81 1238.75 1413.23 1235.12 1413.31 1232.25C1413.98 1231.21 1414.79 1230.69 1415.75 1230.69L1418.81 1232.62H1462.31C1463.02 1232.62 1463.62 1232.98 1464.12 1233.69C1464.62 1234.4 1464.92 1235.1 1465 1235.81L1422.94 1299.69C1420.77 1302.77 1419.35 1305.21 1418.69 1307C1420.48 1307 1422.06 1307.69 1423.44 1309.06C1424.81 1310.44 1425.5 1312.21 1425.5 1314.38C1425.5 1316.38 1424.71 1318.08 1423.12 1319.5C1421.58 1320.96 1419.42 1321.69 1416.62 1321.69C1413.96 1321.69 1411.85 1320.94 1410.31 1319.44C1408.81 1317.98 1408.06 1315.96 1408.06 1313.38C1408.06 1311.92 1408.56 1310.15 1409.56 1308.06C1410.6 1305.98 1411.62 1304.25 1412.62 1302.88L1451.38 1244.75Z" fill="black"/>
</svg>
