<svg width="2240" height="86" viewBox="0 0 2240 86" fill="none" xmlns="http://www.w3.org/2000/svg">
<path fill-rule="evenodd" clip-rule="evenodd" d="M0 22.9324L93.3333 26.4361C186.667 29.9399 373.333 36.9474 560 43.9549C746.667 50.9624 933.333 57.9699 1120 47.4587C1306.67 36.9474 1493.33 8.91736 1680 1.90985C1866.67 -5.09767 2053.33 8.91736 2146.67 15.9249L2240 22.9324V86H2146.67C2053.33 86 1866.67 86 1680 86C1493.33 86 1306.67 86 1120 86C933.333 86 746.667 86 560 86C373.333 86 186.667 86 93.3333 86H0V22.9324Z" fill="#19D2C7" fill-opacity="0.94"/>
</svg>
