<svg width="156" height="41" viewBox="0 0 156 41" fill="none" xmlns="http://www.w3.org/2000/svg">
<rect y="2" width="156" height="37" rx="18.5" fill="#19D2C7"/>
<path d="M35.32 24.472L35.752 25.16L32.808 26.968C32.36 27.1067 31.9227 27.1973 31.496 27.24C31.08 27.2933 30.632 27.32 30.152 27.32C28.968 27.32 27.9173 27.048 27 26.504C26.0933 25.96 25.384 25.2133 24.872 24.264C24.3707 23.304 24.12 22.216 24.12 21C24.12 19.752 24.4987 18.6 25.256 17.544C26.0133 16.4773 26.9573 15.64 28.088 15.032C29.2187 14.4133 30.296 14.104 31.32 14.104C31.928 14.104 32.6373 14.184 33.448 14.344C34.2587 14.504 34.8507 14.6747 35.224 14.856V17.96H34.616C33.5493 16.2853 32.1413 15.448 30.392 15.448C29.624 15.448 28.9253 15.656 28.296 16.072C27.6667 16.4773 27.1707 17.048 26.808 17.784C26.456 18.5093 26.28 19.3253 26.28 20.232C26.28 21.2773 26.4507 22.232 26.792 23.096C27.144 23.96 27.6773 24.6533 28.392 25.176C29.1067 25.6987 29.992 25.96 31.048 25.96C31.5173 25.96 31.9067 25.944 32.216 25.912C32.5253 25.88 32.8933 25.7787 33.32 25.608V21.832L30.856 21.144L31.176 20.504H36.84V21L35.32 22.2V24.472ZM43.8985 27.032C43.4718 27.1173 42.9598 27.16 42.3625 27.16C41.6585 27.16 41.0238 26.9787 40.4585 26.616C39.9038 26.2427 39.4665 25.7413 39.1465 25.112C38.8372 24.4827 38.6825 23.7893 38.6825 23.032C38.6825 22.2107 38.9332 21.4427 39.4345 20.728C39.9358 20.0027 40.5598 19.4267 41.3065 19C42.0638 18.5627 42.7945 18.344 43.4985 18.344C44.5118 18.344 45.2958 18.744 45.8505 19.544C46.4158 20.344 46.6985 21.4 46.6985 22.712H40.7785C40.8425 23.6187 41.0878 24.36 41.5145 24.936C41.9518 25.512 42.5438 25.8 43.2905 25.8C43.9838 25.8 44.9705 25.2613 46.2505 24.184L46.7305 24.792L43.8985 27.032ZM42.5705 19.688C41.4185 19.688 40.8158 20.4773 40.7625 22.056H44.5065C44.4105 21.48 44.3092 21.0427 44.2025 20.744C44.1065 20.4347 43.9305 20.184 43.6745 19.992C43.4292 19.7893 43.0612 19.688 42.5705 19.688ZM53.2838 27.032C53.0384 27.1173 52.7398 27.16 52.3878 27.16C51.5024 27.16 50.8518 26.9307 50.4358 26.472C50.0304 26.0027 49.8278 25.2827 49.8278 24.312V19.64H48.0998V18.984L51.1398 15.448H51.7478V18.984H54.6278V19.64H51.7478V24.504C51.7478 25.368 52.1638 25.8 52.9958 25.8C53.2198 25.8 53.4331 25.752 53.6358 25.656C53.8491 25.56 54.1104 25.3893 54.4198 25.144L54.8998 25.752L53.2838 27.032ZM64.9534 27H60.4894V26.504L61.9134 25.384V20.712L60.4894 19.72V19.224L63.2254 18.2H63.8334V25.8L65.2734 26.36L64.9534 27ZM62.8094 13.4C63.1294 13.4 63.3907 13.5173 63.5934 13.752C63.8067 13.9867 63.9134 14.28 63.9134 14.632C63.9134 14.8773 63.8387 15.112 63.6894 15.336C63.54 15.5493 63.3534 15.72 63.1294 15.848C62.9054 15.976 62.6867 16.04 62.4734 16.04C62.1534 16.04 61.8867 15.9227 61.6734 15.688C61.4707 15.4533 61.3694 15.16 61.3694 14.808C61.3694 14.5627 61.444 14.3333 61.5934 14.12C61.7427 13.896 61.9294 13.72 62.1534 13.592C62.3774 13.464 62.596 13.4 62.8094 13.4ZM76.6121 27.016H73.5721V21.624C73.5721 21.0373 73.4815 20.6267 73.3001 20.392C73.1188 20.1573 72.7935 20.04 72.3241 20.04C71.9721 20.04 71.6201 20.104 71.2681 20.232C70.9268 20.36 70.5215 20.6053 70.0521 20.968V25.816L71.4921 26.376L71.1721 27.016H66.7081V26.52L68.1321 25.4V20.872L66.7081 20.04V19.544L69.4441 18.2L69.9721 20.28L72.2441 18.472C72.4681 18.3867 72.7615 18.344 73.1241 18.344C73.8495 18.344 74.4255 18.568 74.8521 19.016C75.2788 19.4533 75.4921 20.0507 75.4921 20.808V25.8L76.9321 26.376L76.6121 27.016ZM87.2369 27.032C86.9915 27.1173 86.6929 27.16 86.3409 27.16C85.4555 27.16 84.8049 26.9307 84.3889 26.472C83.9835 26.0027 83.7809 25.2827 83.7809 24.312V19.64H82.0529V18.984L85.0929 15.448H85.7009V18.984H88.5809V19.64H85.7009V24.504C85.7009 25.368 86.1169 25.8 86.9489 25.8C87.1729 25.8 87.3862 25.752 87.5889 25.656C87.8022 25.56 88.0635 25.3893 88.3729 25.144L88.8529 25.752L87.2369 27.032ZM94.8735 18.344C95.5775 18.344 96.2068 18.5307 96.7615 18.904C97.3268 19.2667 97.7642 19.7627 98.0735 20.392C98.3935 21.0213 98.5535 21.7147 98.5535 22.472C98.5535 23.2933 98.3028 24.0667 97.8015 24.792C97.3002 25.5067 96.6708 26.0827 95.9135 26.52C95.1668 26.9467 94.4415 27.16 93.7375 27.16C93.0335 27.16 92.3988 26.9787 91.8335 26.616C91.2788 26.2427 90.8415 25.7413 90.5215 25.112C90.2122 24.4827 90.0575 23.7893 90.0575 23.032C90.0575 22.2107 90.3082 21.4427 90.8095 20.728C91.3108 20.0027 91.9348 19.4267 92.6815 19C93.4388 18.5627 94.1695 18.344 94.8735 18.344ZM93.9455 19.688C92.7402 19.688 92.1375 20.5467 92.1375 22.264C92.1375 23.2773 92.3562 24.1253 92.7935 24.808C93.2308 25.48 93.8548 25.816 94.6655 25.816C95.8708 25.816 96.4735 24.952 96.4735 23.224C96.4735 22.2213 96.2548 21.384 95.8175 20.712C95.3802 20.0293 94.7562 19.688 93.9455 19.688ZM109.663 27H106.623V25.336L104.591 27.032C104.367 27.1173 104.074 27.16 103.711 27.16C102.986 27.16 102.41 26.9413 101.983 26.504C101.557 26.056 101.343 25.4533 101.343 24.696V20.872L99.9194 20.04V19.544L102.655 18.2H103.263V23.896C103.263 24.4827 103.354 24.8933 103.535 25.128C103.717 25.3627 104.042 25.48 104.511 25.48C104.842 25.48 105.167 25.4213 105.487 25.304C105.807 25.176 106.186 24.9307 106.623 24.568V20.872L105.199 20.04V19.544L107.935 18.2H108.543V25.8L109.983 26.36L109.663 27ZM116.163 18.344C116.6 18.344 117.107 18.408 117.683 18.536C118.27 18.6533 118.691 18.7867 118.947 18.936V21.4H118.339C117.923 20.8667 117.443 20.4507 116.899 20.152C116.366 19.8427 115.811 19.688 115.235 19.688C114.744 19.688 114.371 19.9067 114.115 20.344C113.87 20.7813 113.747 21.4213 113.747 22.264C113.747 23.2667 113.966 24.1093 114.403 24.792C114.84 25.464 115.464 25.8 116.275 25.8C116.883 25.8 117.747 25.3627 118.867 24.488L119.347 25.096L116.883 27.032C116.456 27.1173 115.944 27.16 115.347 27.16C114.643 27.16 114.008 26.9787 113.443 26.616C112.888 26.2427 112.451 25.7413 112.131 25.112C111.822 24.4827 111.667 23.7893 111.667 23.032C111.667 22.2107 111.896 21.4373 112.355 20.712C112.824 19.9867 113.411 19.4107 114.115 18.984C114.819 18.5573 115.502 18.344 116.163 18.344ZM130.823 27H127.783V21.608C127.783 21.0213 127.693 20.6107 127.511 20.376C127.33 20.1413 127.005 20.024 126.535 20.024C126.183 20.024 125.831 20.088 125.479 20.216C125.138 20.344 124.733 20.5893 124.263 20.952V25.8L125.703 26.36L125.383 27H120.919V26.504L122.343 25.384V15.544L120.919 14.552V14.056L123.655 13.032H124.263V20.2L126.455 18.472C126.679 18.3867 126.973 18.344 127.335 18.344C128.061 18.344 128.637 18.568 129.063 19.016C129.49 19.4533 129.703 20.0507 129.703 20.808V25.8L131.143 26.36L130.823 27Z" fill="black"/>
</svg>
