<svg width="2240" height="86" viewBox="0 0 2240 86" fill="none" xmlns="http://www.w3.org/2000/svg">
<path fill-rule="evenodd" clip-rule="evenodd" d="M0 63.0676L93.3333 59.5639C186.667 56.0601 373.333 49.0526 560 42.0451C746.667 35.0376 933.333 28.0301 1120 38.5413C1306.67 49.0526 1493.33 77.0826 1680 84.0902C1866.67 91.0977 2053.33 77.0826 2146.67 70.0751L2240 63.0676V0H2146.67C2053.33 0 1866.67 0 1680 0C1493.33 0 1306.67 0 1120 0C933.333 0 746.667 0 560 0C373.333 0 186.667 0 93.3333 0H0V63.0676Z" fill="#FFD396"/>
</svg>
